<svg width="47" height="50" viewBox="0 0 47 50" fill="none" xmlns="http://www.w3.org/2000/svg">
<path d="M41.2652 39.4812C40.6068 38.9948 39.818 38.4499 38.9206 37.8617C38.5816 37.6397 38.1267 37.7341 37.9045 38.0732C37.6823 38.4121 37.7769 38.867 38.1159 39.0893C38.9904 39.6626 39.7566 40.1917 40.3931 40.6618C43.4677 42.933 44.5831 44.9143 44.7089 48.5324H38.206C38.1656 47.0022 38.0201 45.4492 38.0129 45.3738C37.9746 44.9702 37.6166 44.6733 37.2131 44.7124C36.8096 44.7506 36.5135 45.1086 36.5516 45.5121C36.5534 45.5299 36.6964 47.0565 36.7376 48.5324H13.7613C13.8025 47.0564 13.9455 45.5299 13.9473 45.512C13.9854 45.1085 13.6892 44.7505 13.2858 44.7123C12.882 44.6737 12.5243 44.9702 12.4861 45.3737C12.479 45.4492 12.3334 47.0021 12.2931 48.5323H7.7243C8.04598 48.0138 8.2869 47.365 8.44003 46.5951L8.44042 46.5958C9.93358 46.34 11.0738 45.037 11.0738 43.472C11.0738 42.4223 10.5606 41.4905 9.77235 40.9133C9.88104 40.8296 9.99227 40.7457 10.1059 40.6617C13.153 38.4109 18.2135 35.5115 20.3042 34.3384C20.8347 36.5783 22.8498 38.2504 25.2496 38.2504C27.6494 38.2504 29.6647 36.5782 30.1951 34.3383C31.3725 34.9986 33.4902 36.2052 35.6505 37.5301C36.0189 37.756 36.5151 37.6064 36.6986 37.2161C36.8557 36.8823 36.732 36.4716 36.4178 36.2789C33.8143 34.6823 31.2722 33.2558 30.3328 32.7344V31.7024C32.2445 30.523 33.7187 28.6997 34.4503 26.5371C34.4784 26.5378 34.5066 26.5393 34.5348 26.5393C36.5896 26.5393 38.2614 24.8675 38.2614 22.8126C38.2614 22.0105 38.0057 21.2673 37.5729 20.6585C37.9106 19.3214 38.1141 17.9771 38.1746 16.6568C38.1932 16.2519 37.88 15.9086 37.4752 15.8901C37.0708 15.8723 36.7271 16.1847 36.7085 16.5895C36.6638 17.5642 36.5348 18.5545 36.3255 19.5454C35.7937 19.2528 35.1834 19.0859 34.5348 19.0859C34.4843 19.0859 34.4335 19.0877 34.3828 19.0898C33.6011 18.6624 30.2296 16.628 29.7993 13.1578C31.0099 12.9677 32.2223 12.6757 33.306 12.2346C34.4073 11.7864 35.2239 11.2458 35.8266 10.6642C36.1967 11.6597 36.4557 12.7048 36.5966 13.7855C36.6489 14.1871 37.0321 14.4766 37.4327 14.4163C37.8228 14.3576 38.103 13.9876 38.0519 13.5958C37.8558 12.0911 37.453 10.6464 36.8545 9.29514C37.2694 8.48576 37.401 7.67151 37.4013 6.96799C37.4017 5.65471 36.8472 4.51223 35.7974 3.66418C34.8983 2.93791 33.6479 2.43508 32.1814 2.21028C30.8856 2.01154 29.5106 2.04465 28.3097 2.30334C28.0537 2.35852 27.8101 2.38518 27.5753 2.38928C27.8355 2.01047 28.1906 1.60529 28.6201 1.39055C28.9826 1.2093 29.1296 0.768478 28.9483 0.405978C28.7671 0.0434785 28.3262 -0.103592 27.9638 0.0778535C27.0144 0.552463 26.3716 1.47932 26.0252 2.10129C25.6308 1.95813 25.2387 1.77561 24.8265 1.58283C23.3494 0.892307 21.6752 0.109689 19.1016 0.771506C15.4741 1.70432 12.8265 4.8636 13.1999 7.81408C13.2552 8.251 13.3849 8.75559 13.6511 9.28078C11.7754 13.4981 12.1821 17.7202 12.9254 20.6599C12.4931 21.2684 12.2379 22.0111 12.2379 22.8126C12.2379 24.8675 13.9097 26.5393 15.9645 26.5393C15.9927 26.5393 16.0209 26.5377 16.049 26.5371C16.7806 28.6997 18.2549 30.523 20.1665 31.7025V32.734C18.6055 33.5988 12.7318 36.8975 9.23387 39.4814C8.85048 39.7646 8.50302 40.0392 8.17753 40.3147C8.08075 40.3064 7.98358 40.3014 7.88651 40.3022C7.84501 40.3026 7.78661 40.3156 7.7578 40.292C7.72733 40.267 7.70243 40.202 7.68085 40.1688L8.46532 28.7898C8.47294 28.6785 8.45409 28.5629 8.41171 28.4598L7.1952 25.5063C7.72997 24.9549 8.03778 24.2092 8.03778 23.4163C8.03778 23.0013 7.91141 22.2173 6.81864 20.2094C6.24774 19.1604 5.68573 18.2812 5.6621 18.2443C5.3785 17.8014 4.70975 17.8014 4.42616 18.2443C4.40253 18.2812 3.84052 19.1604 3.26962 20.2094C2.17684 22.2174 2.05048 23.0013 2.05048 23.4163C2.05048 24.2092 2.35829 24.9549 2.89305 25.5063L1.67655 28.4598C1.63417 28.5628 1.61532 28.6785 1.62294 28.7898L1.85975 32.2245C1.88759 32.6288 2.23798 32.9333 2.64237 32.9062C3.04667 32.8782 3.35194 32.528 3.32401 32.1236L3.1413 29.4731H6.94706L6.29169 38.9789C5.94794 38.8408 5.56971 38.7698 5.15878 38.7698C4.68485 38.7698 4.22889 38.8696 3.80155 39.0516L3.52577 35.0519C3.49784 34.6475 3.14667 34.3425 2.74315 34.3702C2.33886 34.3982 2.03358 34.7485 2.06151 35.1529L2.39911 40.0495C1.43016 41.0802 0.811218 42.641 0.811218 44.3852C0.811218 47.4179 2.6827 49.8952 5.01229 49.9955C5.0205 49.9986 5.03085 50.0003 5.04413 50.0003H45.4551C45.8603 50.0003 46.189 49.6717 46.189 49.2664C46.1889 44.6697 44.9465 42.2005 41.2652 39.4812ZM34.959 23.4328V20.5941C36.0023 20.7933 36.7936 21.712 36.7936 22.8125C36.7936 23.9603 35.9329 24.9103 34.8232 25.0525C34.912 24.5255 34.959 23.9846 34.959 23.4328ZM28.8649 33.1673C28.8649 35.1609 27.2431 36.7826 25.2495 36.7826C23.2559 36.7826 21.6342 35.1608 21.6342 33.1673V32.4423C22.7523 32.8927 23.9721 33.1422 25.2495 33.1422C26.5269 33.1422 27.7468 32.8926 28.8649 32.4423V33.1673ZM19.467 2.19289C20.02 2.05071 20.518 1.99026 20.9773 1.99026C22.2321 1.99026 23.1981 2.44182 24.2047 2.91233C25.4835 3.51018 26.8057 4.12834 28.6185 3.73811C31.1764 3.18723 33.7019 3.85822 34.8749 4.80578C35.5875 5.38147 35.9337 6.0885 35.9334 6.96731C35.9327 8.726 34.8923 10.0042 32.7527 10.875C30.9173 11.622 28.3227 12.0168 25.2495 12.0168C18.9636 12.0168 15.0033 10.3768 14.6558 7.62971C14.3768 5.42502 16.5801 2.93518 19.467 2.19289ZM13.7054 22.8125C13.7054 21.712 14.4967 20.7933 15.54 20.5941V23.4328C15.54 23.9846 15.587 24.5255 15.6759 25.0525C14.5661 24.9102 13.7054 23.9603 13.7054 22.8125ZM15.9643 19.0858C15.3153 19.0858 14.7048 19.2529 14.1727 19.5458C13.6535 17.0937 13.4658 13.8857 14.6768 10.6477C15.1224 11.0768 15.6935 11.4927 16.4256 11.8698C17.5804 12.4648 19.0102 12.8962 20.6992 13.1628C20.2662 16.631 16.8953 18.6639 16.1164 19.0896C16.0656 19.0876 16.0148 19.0858 15.9643 19.0858ZM17.0077 23.4328V20.2755C18.2252 19.5839 21.6776 17.2939 22.1582 13.3451C23.1194 13.437 24.1491 13.4846 25.2494 13.4846C26.16 13.4846 27.2264 13.4496 28.3404 13.3415C28.8201 17.2847 32.2749 19.5814 33.4912 20.2746V23.4327C33.4912 27.9773 29.7939 31.6744 25.2494 31.6744C20.7049 31.6744 17.0077 27.9774 17.0077 23.4328ZM8.42264 41.8519C9.10809 42.072 9.60604 42.7144 9.60604 43.4721C9.60604 44.1536 9.20341 44.743 8.62362 45.0147L8.62343 45.0149C8.63261 44.8105 8.63749 44.6006 8.63749 44.385C8.63749 43.4224 8.54442 42.5716 8.3663 41.8407L8.42264 41.8519ZM5.04403 20.0469C5.85721 21.4383 6.57001 22.9062 6.57001 23.4161C6.57001 23.8602 6.38387 24.2741 6.06444 24.5592H4.02362C3.70419 24.2741 3.51805 23.8602 3.51805 23.4161C3.51805 22.9062 4.23085 21.4383 5.04403 20.0469ZM3.45087 28.0052L4.26571 26.027H5.82235L6.63719 28.0052H3.45087ZM5.15868 48.5323C3.57069 48.5323 2.2788 46.6718 2.2788 44.3849C2.2788 42.098 3.57069 40.2374 5.15868 40.2374C5.90975 40.2374 7.16971 40.7763 7.16971 44.3849C7.16981 47.9935 5.90975 48.5323 5.15868 48.5323Z" fill="#073141"/>
<path d="M20.9003 19.0858C20.1563 19.0858 19.5953 19.8339 19.5953 20.8258C19.5953 21.8177 20.1563 22.5657 20.9003 22.5657C21.6441 22.5657 22.2052 21.8177 22.2052 20.8258C22.2052 19.8339 21.6441 19.0858 20.9003 19.0858Z" fill="#073141"/>
<path d="M29.5987 22.5657C30.3427 22.5657 30.9036 21.8177 30.9036 20.8258C30.9036 19.8339 30.3426 19.0858 29.5987 19.0858C28.8549 19.0858 28.2938 19.8339 28.2938 20.8258C28.2938 21.8177 28.8548 22.5657 29.5987 22.5657Z" fill="#073141"/>
<path d="M28.8193 26.1815C28.9736 25.8067 28.7949 25.3779 28.4202 25.2235C28.0452 25.069 27.6165 25.2479 27.4622 25.6227C27.4582 25.6324 27.0213 26.588 25.4685 26.588C23.9157 26.588 23.4788 25.6324 23.4749 25.6227C23.3206 25.2479 22.8919 25.0691 22.5169 25.2235C22.1421 25.3778 21.9634 25.8067 22.1177 26.1815C22.1491 26.2581 22.9186 28.0556 25.4684 28.0556C28.0183 28.0556 28.7879 26.2581 28.8193 26.1815Z" fill="#073141"/>
</svg>
